{"title":"Bessie (2015) 720p x264 AAC ITA","uid":12716157,"size":4193104410,"categoryP":"video","categoryS":"hd___movies","magnet":"?xt=urn:btih:fb8610de31f528628648cb279e145bbfda5fe3cd&amp;dn=Bessie+%282015%29+720p+x264+AAC+ITA&amp;tr=udp%3A%2F%2Ftracker.leechers-paradise.org%3A6969&amp;tr=udp%3A%2F%2Fzer0day.ch%3A1337&amp;tr=udp%3A%2F%2Fopen.demonii.com%3A1337&amp;tr=udp%3A%2F%2Ftracker.coppersurfer.tk%3A6969&amp;tr=udp%3A%2F%2Fexodus.desync.com%3A6969","seeders":0,"leechers":1,"uploader":"xtron197777","files":1,"time":1446933186,"description":"Bessie (2015)\r\n \nhttp://i.imgur.com/LifcPtW.jpg?1\r\n\r\n-: Cast :-\r\n\r\nQueen Latifah: Bessie Smith\r\nMichael K. Williams: Jack Gee\r\nKhandi Alexander: Viola Smith\r\nMo'Nique: Ma Rainey\r\nMike Epps: Richard\r\nTory Kittles: Clarence Smith\r\nTika Sumpter: Lucille\r\nOliver Platt: Carl Van Vechten\r\nBryan Greenberg: John Hammond\r\nCharles S. Dutton: William &quot;Pa&quot; Rainey\r\n\r\n-: Trama :-\r\n\r\nL'incredibile storia della leggendaria cantante blues Bessie Smith, da quando era una semplice e giovane cantante che lottava per sopravvivere sino ai successi che negli anni Venti l'hanno trasformata nell'imperatrice del blues rendendola un'icona.\r\n\r\n-: Info :-\r\nGeneral \r\nComplete name : C:tempBessie (2015) 720p x264 AAC ITA.mp4 \r\nFormat : MPEG-4 \r\nFormat profile : Base Media \r\nCodec ID : isom \r\nFile size : 3.91 GiB \r\nDuration : 1h 52mn \r\nOverall bit rate mode : Variable \r\nOverall bit rate : 4 992 Kbps \r\nEncoded date : UTC 2015-11-07 10:35:32 \r\nTagged date : UTC 2015-11-07 10:35:32 \r\nWriting application : Lavf57.3.100 \r\n\r\nVideo \r\nID : 1 \r\nFormat : AVC \r\nFormat/Info : Advanced Video Codec \r\nFormat profile :    \r\nFormat settings, CABAC : Yes \r\nFormat settings, ReFrames : 4 frames \r\nCodec ID : avc1 \r\nCodec ID/Info : Advanced Video Coding \r\nDuration : 1h 52mn \r\nBit rate : 4 858 Kbps \r\nWidth : 1 280 pixels \r\nHeight : 720 pixels \r\nDisplay aspect ratio : 16:9 \r\nFrame rate mode : Variable \r\nFrame rate : 23.976 fps \r\nMinimum frame rate : 23.564 fps \r\nMaximum frame rate : 24.390 fps \r\nColor space : YUV \r\nChroma subsampling : 4:2:0 \r\nBit depth : 8 bits \r\nScan type : Progressive \r\nBits/(Pixel*Frame) : 0.220 \r\nStream size : 3.80 GiB (97%) \r\nWriting library : x264 core 146 r2538 121396c \r\nEncoding settings : cabac=1 / ref=2 / deblock=1:-2:-1 / analyse=0x3:0x113 / me=hex / subme=6 / psy=1 / psy_rd=1.00:0.00 / mixed_ref=1 / me_range=16 / chroma_me=1 / trellis=1 / 8x8dct=1 / cqm=0 / deadzone=21,11 / fast_pskip=1 / chroma_qp_offset=-2 / threads=12 / lookahead_threads=2 / sliced_threads=0 / nr=0 / decimate=0 / interlaced=0 / bluray_compat=0 / constrained_intra=0 / bframes=3 / b_pyramid=2 / b_adapt=1 / b_bias=0 / direct=1 / weightb=1 / open_gop=0 / weightp=1 / keyint=240 / keyint_min=24 / scenecut=40 / intra_refresh=0 / rc_lookahead=30 / rc=2pass / mbtree=1 / bitrate=4858 / ratetol=1.0 / qcomp=0.60 / qpmin=0 / qpmax=69 / qpstep=4 / cplxblur=20.0 / qblur=0.5 / vbv_maxrate=50000 / vbv_bufsize=50000 / nal_hrd=none / filler=0 / ip_ratio=1.40 / aq=1:1.00 \r\nEncoded date : UTC 2015-11-07 10:35:32 \r\nTagged date : UTC 2015-11-07 10:35:32 \r\n\r\nAudio \r\nID : 2 \r\nFormat : AAC \r\nFormat/Info : Advanced Audio Codec \r\nFormat profile : LC \r\nCodec ID : 40 \r\nDuration : 1h 51mn \r\nDuration_LastFrame : -11ms \r\nBit rate mode : Constant \r\nBit rate : 128 Kbps \r\nChannel(s) : 2 channels \r\nChannel positions : Front: L R \r\nSampling rate : 48.0 KHz \r\nCompression mode : Lossy \r\nStream size : 103 MiB (3%) \r\nLanguage : Italian \r\nEncoded date : UTC 2015-11-07 10:35:32 \r\nTagged date : UTC 2015-11-07 10:35:32 \r\n\r\nText \r\nID : 3 \r\nFormat : Timed Text \r\nMuxing mode : sbtl \r\nCodec ID : tx3g \r\nDuration : 1h 47mn \r\nBit rate mode : Variable \r\nBit rate : 77 bps \r\nStream size : 60.4 KiB (0%) \r\nLanguage : English \r\nEncoded date : UTC 2015-11-07 10:35:32 \r\nTagged date : UTC 2015-11-07 10:35:32","torrent":{"xt":"urn:btih:fb8610de31f528628648cb279e145bbfda5fe3cd","amp;dn":"Bessie+%282015%29+720p+x264+AAC+ITA","amp;tr":["udp%3A%2F%2Ftracker.leechers-paradise.org%3A6969","udp%3A%2F%2Fzer0day.ch%3A1337","udp%3A%2F%2Fopen.demonii.com%3A1337","udp%3A%2F%2Ftracker.coppersurfer.tk%3A6969","udp%3A%2F%2Fexodus.desync.com%3A6969"],"infoHash":"fb8610de31f528628648cb279e145bbfda5fe3cd","infoHashBuffer":{"type":"Buffer","data":[251,134,16,222,49,245,40,98,134,72,203,39,158,20,91,191,218,95,227,205]},"announce":[],"urlList":[]}}